<?xml version="1.0" encoding="UTF-8"?>
<svg version="1.1" viewBox="0 0 200 200" xmlns="http://www.w3.org/2000/svg">
 <defs>
  <linearGradient id="a" x1="142.11" x2="176.89" y1="349.96" y2="373.17" gradientTransform="matrix(2.9168 0 0 2.9168 -368.2 -106.98)" gradientUnits="userSpaceOnUse">
   <stop stop-color="#bfbfbf" offset="0"/>
   <stop stop-color="#fff" stop-opacity="0" offset="1"/>
  </linearGradient>
 </defs>
 <g transform="translate(0 -852.36)">
  <path d="m116.71 894.54-16.68 40.47v40.379l-37.736-17.409 37.736 52.228 19.779 25.066c16.786-4.0848 31.622-13.066 43.022-25.248 11.528-30.695 23.455-63.034 23.425-63.713l-69.547-51.773z" fill="url(#a)"/>
  <rect x="12.497" y="864.86" width="175.01" height="175.01" ry="87.503" fill="none" stroke="#000" stroke-dasharray="35.0012352, 11.6670784" stroke-dashoffset="6" stroke-linecap="round" stroke-width="5.8335"/>
  <g transform="matrix(2.9168 0 0 2.9168 -1917.6 -161.65)" fill="#a7d770">
   <path d="m691.74 401.76-3.2295-4.4749-3.2295-4.4749-3.2295-4.4749-3.2295-4.4749h25.836l-3.2295 4.4749-3.2295 4.4749-3.2295 4.4749z"/>
   <rect x="686.01" y="362.11" width="11.458" height="27.715" ry="0"/>
  </g>
  <rect y="852.36" width="200" height="200" fill-opacity="0"/>
 </g>
</svg>
