<?xml version="1.0" encoding="UTF-8" standalone="no"?>
<!-- Created with Inkscape (http://www.inkscape.org/) -->

<svg
   version="1.1"
   id="svg3104"
   xml:space="preserve"
   width="673.06134"
   height="673.06134"
   viewBox="0 0 673.06134 673.06134"
   sodipodi:docname="step5.svg"
   inkscape:version="1.1 (c68e22c387, 2021-05-23)"
   xmlns:inkscape="http://www.inkscape.org/namespaces/inkscape"
   xmlns:sodipodi="http://sodipodi.sourceforge.net/DTD/sodipodi-0.dtd"
   xmlns="http://www.w3.org/2000/svg"
   xmlns:svg="http://www.w3.org/2000/svg"><defs
     id="defs3108"><clipPath
       clipPathUnits="userSpaceOnUse"
       id="clipPath3120"><path
         d="M 0,720 H 720 V 0 H 0 Z"
         id="path3118" /></clipPath><clipPath
       clipPathUnits="userSpaceOnUse"
       id="clipPath3128"><path
         d="M 107.602,612.398 H 612.398 V 107.602 H 107.602 Z"
         id="path3126" /></clipPath></defs><sodipodi:namedview
     id="namedview3106"
     pagecolor="#ffffff"
     bordercolor="#666666"
     borderopacity="1.0"
     inkscape:pageshadow="2"
     inkscape:pageopacity="0.0"
     inkscape:pagecheckerboard="0"
     showgrid="false"
     inkscape:zoom="0.909375"
     inkscape:cx="337.5945"
     inkscape:cy="337.04467"
     inkscape:window-width="2560"
     inkscape:window-height="1361"
     inkscape:window-x="-9"
     inkscape:window-y="-9"
     inkscape:window-maximized="1"
     inkscape:current-layer="g3110" /><g
     id="g3110"
     inkscape:groupmode="layer"
     inkscape:label="step5"
     transform="matrix(1.3333333,0,0,-1.3333333,-143.46933,816.53065)"><g
       id="g3114"><g
         id="g3116"
         clip-path="url(#clipPath3120)"><g
           id="g3122"><g
             id="g3124" /><g
             id="g3136"><g
               clip-path="url(#clipPath3128)"
               opacity="0.5"
               id="g3134"><g
                 transform="translate(612.3985,360)"
                 id="g3132"><path
                   d="m 0,0 c 0,-139.396 -113.003,-252.398 -252.398,-252.398 -139.396,0 -252.399,113.002 -252.399,252.398 0,139.396 113.003,252.398 252.399,252.398 C -113.003,252.398 0,139.396 0,0"
                   style="fill:#ffffff;fill-opacity:1;fill-rule:nonzero;stroke:none"
                   id="path3130" /></g></g></g></g><g
           id="g3138"
           transform="translate(360,201.1048)"><path
             d="m 0,0 c -44.092,0 -151.394,80.323 -151.394,80.323 v 93.749 H 151.394 V 80.323 C 151.394,80.323 44.092,0 0,0"
             style="fill:#231f20;fill-opacity:1;fill-rule:nonzero;stroke:none"
             id="path3140" /></g><g
           id="g3142"
           transform="translate(360,279.2833)"><path
             d="m 0,0 -222.558,133.005 v 8.122 L 0,229.967 222.558,141.127 v -8.122 z"
             style="fill:#414142;fill-opacity:1;fill-rule:nonzero;stroke:none"
             id="path3144" /></g><g
           id="g3146"
           transform="translate(360,287.4057)"><path
             d="M 0,0 -222.558,133.005 0,231.49 222.558,133.005 Z"
             style="fill:#231f20;fill-opacity:1;fill-rule:nonzero;stroke:none"
             id="path3148" /></g><g
           id="g3150"
           transform="translate(475.9565,307.8813)"><path
             d="m 0,0 c 0,0 7.911,-27.837 6.642,-30.248 -1.27,-2.411 -9.773,-6.346 -9.773,-6.346 V 0.973 Z"
             style="fill:#f7931d;fill-opacity:1;fill-rule:nonzero;stroke:none"
             id="path3152" /></g><g
           id="g3154"
           transform="translate(475.2589,307.8813)"><path
             d="m 0,0 h -5.077 v 45.501 l -111.553,71.576 2.741,4.273 L 0,48.276 Z"
             style="fill:#d1d3d4;fill-opacity:1;fill-rule:nonzero;stroke:none"
             id="path3156" /></g><g
           id="g3158"
           transform="translate(475.9877,307.8813)"><path
             d="m 0,0 h -6.324 c -1.123,0 -2.041,0.919 -2.041,2.041 v 0.063 c 0,1.123 0.918,2.042 2.041,2.042 H 0 c 1.123,0 2.042,-0.919 2.042,-2.042 V 2.042 C 2.042,0.919 1.123,0 0,0"
             style="fill:#fbb03f;fill-opacity:1;fill-rule:nonzero;stroke:none"
             id="path3160" /></g><g
           id="g3162"
           transform="translate(469.695,307.8813)"><path
             d="m 0,0 c 0,0 -7.911,-27.837 -6.642,-30.248 1.27,-2.411 9.773,-6.346 9.773,-6.346 V 0.973 Z"
             style="fill:#fbb03f;fill-opacity:1;fill-rule:nonzero;stroke:none"
             id="path3164" /></g><g
           id="g3166"
           transform="translate(475.9565,312.0269)"><path
             d="M 0,0 H -3.131 V -4.146 H 0 c 1.14,0 2.073,0.933 2.073,2.073 C 2.073,-0.933 1.14,0 0,0"
             style="fill:#f7931d;fill-opacity:1;fill-rule:nonzero;stroke:none"
             id="path3168" /></g><g
           id="g3170"
           transform="translate(396.2125,427.0947)"><path
             d="m 0,0 c 0,-8.177 -16.213,-14.806 -36.213,-14.806 -19.999,0 -36.212,6.629 -36.212,14.806 0,8.177 16.213,14.807 36.212,14.807 C -16.213,14.807 0,8.177 0,0"
             style="fill:#414142;fill-opacity:1;fill-rule:nonzero;stroke:none"
             id="path3172" /></g></g></g></g></svg>
